<svg width="186.000000" height="62.000000" viewBox="0 0 186 62" fill="none" xmlns="http://www.w3.org/2000/svg" xmlns:xlink="http://www.w3.org/1999/xlink">
	<desc>
			Created with Pixso.
	</desc>
	<defs/>
	<rect id="Mobile app store badge" rx="5.425000" width="184.449997" height="60.450001" transform="translate(0.775000 0.775000)" fill="#000000" fill-opacity="1.000000"/>
	<path id="App Store" d="M115.572 47.7261C111.305 47.7261 108.438 45.5256 108.225 42.0852L111.185 42.0852C111.438 43.9121 113.225 45.0723 115.799 45.0723C118.199 45.0723 119.96 43.832 119.96 42.1252C119.96 40.6582 118.84 39.7781 116.292 39.178L113.812 38.5779C110.332 37.7644 108.745 36.0842 108.745 33.2571C108.745 29.8298 111.545 27.5496 115.746 27.5496C119.653 27.5496 122.507 29.8298 122.68 33.0706L119.773 33.0706C119.493 31.2969 117.946 30.1899 115.706 30.1899C113.345 30.1899 111.772 31.3235 111.772 33.0571C111.772 34.4307 112.785 35.2175 115.292 35.8042L117.413 36.3242C121.36 37.2444 122.987 38.8447 122.987 41.7385C122.987 45.4192 120.133 47.7261 115.572 47.7261ZM70.5105 47.2593L67.3367 47.2593L65.5764 42.1519L58.2419 42.1519L56.4683 47.2593L53.4011 47.2593L60.3489 28.0164L63.5627 28.0164L70.5105 47.2593ZM126.365 33.3125L126.365 29.7612L129.131 29.7612L129.131 33.3125L132.168 33.3125L132.168 35.6411L129.131 35.6411L129.131 42.8462C129.131 44.313 129.736 44.9563 131.113 44.9563C131.537 44.9563 131.782 44.9307 132.168 44.8921L132.168 47.1951C131.718 47.2722 131.203 47.3367 130.662 47.3367C127.587 47.3367 126.365 46.2559 126.365 43.554L126.365 35.6411L124.139 35.6411L124.139 33.3125L126.365 33.3125ZM62.0291 31.5103L61.8025 31.5103L59.002 39.6448L64.8162 39.6448L62.0291 31.5103ZM146.602 40.2473C146.602 44.7891 144.093 47.5295 140.001 47.5295C135.897 47.5295 133.388 44.7891 133.388 40.2473C133.388 35.7312 135.91 32.9778 140.001 32.9778C144.08 32.9778 146.602 35.7312 146.602 40.2473ZM163.607 45.175C165.279 45.175 166.424 44.5703 166.939 43.4768L169.602 43.4768C168.972 45.9856 166.733 47.5295 163.529 47.5295C159.515 47.5295 157.058 44.7761 157.058 40.2988C157.058 35.8213 159.567 32.9778 163.517 32.9778C167.415 32.9778 169.77 35.6411 169.77 40.0415L169.77 41.0063L159.875 41.0063L159.875 41.1609C159.966 43.6182 161.394 45.175 163.607 45.175ZM75.1689 35.564C76.0181 33.9685 77.665 33.0164 79.5691 33.0164C83.1331 33.0164 85.3848 35.7957 85.3848 40.2473C85.3848 44.699 83.1331 47.491 79.595 47.491C77.6006 47.491 76.0181 46.616 75.2847 45.1365L75.0659 45.1365L75.0659 51.917L72.2998 51.917L72.2998 33.248L74.9631 33.248L74.9631 35.564L75.1689 35.564ZM90.6641 35.564C91.5132 33.9685 93.1599 33.0164 95.0642 33.0164C98.6282 33.0164 100.88 35.7957 100.88 40.2473C100.88 44.699 98.6282 47.491 95.0898 47.491C93.0957 47.491 91.5132 46.616 90.7798 45.1365L90.561 45.1365L90.561 51.917L87.7949 51.917L87.7949 33.248L90.458 33.248L90.458 35.564L90.6641 35.564ZM151.514 47.2593L148.748 47.2593L148.748 33.248L151.411 33.248L151.411 35.3967L151.617 35.3967C152.016 34.02 153.573 33.0164 155.4 33.0164C155.812 33.0164 156.339 33.0552 156.635 33.1323L156.635 35.8599C156.404 35.7827 155.58 35.6926 155.091 35.6926C152.994 35.6926 151.514 37.0178 151.514 38.9863L151.514 47.2593ZM166.952 38.9607C166.887 36.7605 165.549 35.3323 163.504 35.3323C161.458 35.3323 160.03 36.7734 159.875 38.9607L166.952 38.9607ZM136.244 40.2473C136.244 43.3093 137.595 45.072 140.001 45.072C142.394 45.072 143.758 43.2966 143.758 40.2473C143.758 37.2109 142.394 35.4353 140.001 35.4353C137.595 35.4353 136.244 37.2109 136.244 40.2473ZM75.0146 40.2603C75.0146 43.1807 76.4685 45.0078 78.7844 45.0078C81.1389 45.0078 82.5413 43.2195 82.5413 40.2473C82.5413 37.2881 81.1389 35.4998 78.7971 35.4998C76.4685 35.4998 75.0146 37.3267 75.0146 40.2603ZM90.5095 40.2603C90.5095 43.1807 91.9634 45.0078 94.2793 45.0078C96.6338 45.0078 98.0364 43.2195 98.0364 40.2473C98.0364 37.2881 96.6338 35.4998 94.2922 35.4998C91.9634 35.4998 90.5095 37.3267 90.5095 40.2603Z" fill="#FFFFFF" fill-opacity="1.000000" fill-rule="evenodd"/>
	<path id="Download on the" d="M91.5896 22.7847L92.9727 22.7847L92.9727 13.0449L91.5896 13.0449L91.5896 22.7847ZM113.48 22.9004C114.445 22.9004 115.262 22.4436 115.68 21.6782L115.79 21.6782L115.79 22.7847L117.115 22.7847L117.115 13.0449L115.732 13.0449L115.732 16.8918L115.629 16.8918C115.249 16.1199 114.439 15.6631 113.48 15.6631C111.711 15.6631 110.573 17.0657 110.573 19.2786C110.573 21.498 111.698 22.9004 113.48 22.9004ZM148.293 22.7847L149.677 22.7847L149.677 18.6931C149.677 17.6318 150.307 16.9177 151.439 16.9177C152.417 16.9177 152.938 17.4839 152.938 18.603L152.938 22.7847L154.321 22.7847L154.321 18.2622C154.321 16.5959 153.401 15.6504 151.909 15.6504C150.854 15.6504 150.114 16.1199 149.773 16.9048L149.664 16.9048L149.664 13.0449L148.293 13.0449L148.293 22.7847ZM55.2593 13.5017L55.2593 22.7847L58.6108 22.7847C61.3772 22.7847 62.979 21.0798 62.979 18.1143C62.979 15.1936 61.3643 13.5017 58.6108 13.5017L55.2593 13.5017ZM143.536 14.0356L143.536 15.811L142.423 15.811L142.423 16.9756L143.536 16.9756L143.536 20.9319C143.536 22.283 144.147 22.8232 145.684 22.8232C145.955 22.8232 146.212 22.791 146.437 22.7524L146.437 21.6011C146.244 21.6204 146.122 21.6331 145.909 21.6331C145.221 21.6331 144.919 21.3115 144.919 20.5781L144.919 16.9756L146.437 16.9756L146.437 15.811L144.919 15.811L144.919 14.0356L143.536 14.0356ZM56.7002 14.814L58.4502 14.814C60.3735 14.814 61.5122 16.0364 61.5122 18.1335C61.5122 20.2629 60.3928 21.4722 58.4502 21.4722L56.7002 21.4722L56.7002 14.814ZM67.885 22.9197C69.9307 22.9197 71.1851 21.5496 71.1851 19.2786C71.1851 17.0205 69.9241 15.6438 67.885 15.6438C65.8391 15.6438 64.5784 17.0205 64.5784 19.2786C64.5784 21.5496 65.8328 22.9197 67.885 22.9197ZM83.4607 22.7847L84.8438 22.7847L84.8438 18.6868C84.8438 17.593 85.4937 16.9111 86.5164 16.9111C87.5393 16.9111 88.0283 17.4709 88.0283 18.5967L88.0283 22.7847L89.4114 22.7847L89.4114 18.2493C89.4114 16.583 88.5493 15.6438 86.9861 15.6438C85.9312 15.6438 85.2363 16.1135 84.8953 16.8918L84.7925 16.8918L84.7925 15.7791L83.4607 15.7791L83.4607 22.7847ZM98.1746 22.9197C100.22 22.9197 101.475 21.5496 101.475 19.2786C101.475 17.0205 100.214 15.6438 98.1746 15.6438C96.1289 15.6438 94.8679 17.0205 94.8679 19.2786C94.8679 21.5496 96.1223 22.9197 98.1746 22.9197ZM105.242 22.9004C106.162 22.9004 106.927 22.5015 107.345 21.8003L107.455 21.8003L107.455 22.7847L108.787 22.7847L108.787 17.9983C108.787 16.5188 107.796 15.6438 106.04 15.6438C104.451 15.6438 103.318 16.4158 103.177 17.6189L104.515 17.6189C104.669 17.1235 105.203 16.8403 105.975 16.8403C106.921 16.8403 107.41 17.2585 107.41 17.9983L107.41 18.603L105.512 18.7124C103.846 18.8154 102.907 19.5425 102.907 20.8032C102.907 22.0835 103.891 22.9004 105.242 22.9004ZM126.084 22.9197C128.13 22.9197 129.384 21.5496 129.384 19.2786C129.384 17.0205 128.123 15.6438 126.084 15.6438C124.038 15.6438 122.777 17.0205 122.777 19.2786C122.777 21.5496 124.032 22.9197 126.084 22.9197ZM131.215 22.7847L132.598 22.7847L132.598 18.6868C132.598 17.593 133.248 16.9111 134.271 16.9111C135.293 16.9111 135.782 17.4709 135.782 18.5967L135.782 22.7847L137.166 22.7847L137.166 18.2493C137.166 16.583 136.303 15.6438 134.74 15.6438C133.685 15.6438 132.99 16.1135 132.649 16.8918L132.547 16.8918L132.547 15.7791L131.215 15.7791L131.215 22.7847ZM161.029 20.8933C160.771 21.4402 160.199 21.7424 159.362 21.7424C158.256 21.7424 157.542 20.9641 157.497 19.7354L157.497 19.6582L162.444 19.6582L162.444 19.1758C162.444 16.9756 161.267 15.6438 159.317 15.6438C157.342 15.6438 156.088 17.0657 156.088 19.3044C156.088 21.543 157.317 22.9197 159.324 22.9197C160.926 22.9197 162.045 22.1477 162.36 20.8933L161.029 20.8933ZM81.8679 15.7791L80.4849 15.7791L79.2368 21.125L79.1274 21.125L77.6863 15.7791L76.3611 15.7791L74.9202 21.125L74.8171 21.125L73.5627 15.7791L72.1604 15.7791L74.0903 22.7847L75.512 22.7847L76.9529 17.6252L77.0623 17.6252L78.5098 22.7847L79.9443 22.7847L81.8679 15.7791ZM159.311 16.821C160.334 16.821 161.003 17.5352 161.035 18.6353L157.497 18.6353C157.574 17.5417 158.288 16.821 159.311 16.821ZM67.885 21.6909C66.6819 21.6909 66.0063 20.8096 66.0063 19.2786C66.0063 17.7605 66.6819 16.8726 67.885 16.8726C69.0815 16.8726 69.7634 17.7605 69.7634 19.2786C69.7634 20.8032 69.0815 21.6909 67.885 21.6909ZM98.1746 21.6909C96.9714 21.6909 96.2961 20.8096 96.2961 19.2786C96.2961 17.7605 96.9714 16.8726 98.1746 16.8726C99.3711 16.8726 100.053 17.7605 100.053 19.2786C100.053 20.8032 99.3711 21.6909 98.1746 21.6909ZM126.084 21.6909C124.881 21.6909 124.205 20.8096 124.205 19.2786C124.205 17.7605 124.881 16.8726 126.084 16.8726C127.281 16.8726 127.962 17.7605 127.962 19.2786C127.962 20.8032 127.281 21.6909 126.084 21.6909ZM113.873 16.9048C115.031 16.9048 115.758 17.8247 115.758 19.2852C115.758 20.7517 115.037 21.6589 113.873 21.6589C112.702 21.6589 112 20.7646 112 19.2786C112 17.8054 112.708 16.9048 113.873 16.9048ZM105.596 21.7361C104.843 21.7361 104.296 21.3694 104.296 20.739C104.296 20.1213 104.734 19.7932 105.699 19.729L107.41 19.6196L107.41 20.2051C107.41 21.0735 106.638 21.7361 105.596 21.7361Z" fill="#FFFFFF" fill-opacity="1.000000" fill-rule="evenodd"/>
	<path id="Apple logo" d="M35.8853 13.5171C36.0354 15.4766 35.4158 17.4175 34.1577 18.9275C32.9531 20.4258 31.0632 21.3193 29.1409 21.2996C29.0181 19.415 29.667 17.5083 30.9136 16.0896C32.1885 14.6375 33.9636 13.719 35.8853 13.5171ZM42.0447 25.031C39.8247 26.3958 38.4255 28.8611 38.3918 31.4666C38.395 34.4104 40.2056 37.1387 42.9167 38.2854C42.3896 39.9973 41.5955 41.615 40.5632 43.0789C39.1768 45.1526 37.7234 47.1785 35.4163 47.2158C34.3191 47.2412 33.5786 46.9258 32.8069 46.5969C32.0017 46.2542 31.1631 45.8967 29.8503 45.8967C27.2551 45.8967 26.4521 47.1785 24.3022 47.2676C22.1052 47.3491 20.426 45.0544 18.9895 43C16.1179 38.8047 13.8818 31.1772 16.8796 25.9871C18.2742 23.4812 20.9463 21.8516 23.8125 21.759C25.0586 21.7334 26.2544 22.2136 27.3027 22.6345C28.1042 22.9565 28.8198 23.2441 29.4058 23.2441C29.9209 23.2441 30.6162 22.968 31.427 22.6462C32.7039 22.1394 34.2661 21.5195 35.8582 21.6865C38.2986 21.7629 40.6443 23.031 42.0447 25.031Z" fill="#FFFFFF" fill-opacity="1.000000" fill-rule="evenodd"/>
	<rect id="Mobile app store badge" rx="5.425000" width="184.449997" height="60.450001" transform="translate(0.775000 0.775000)" stroke="#A6A6A6" stroke-opacity="1.000000" stroke-width="1.550000"/>
</svg>
