<svg width="85.019653" height="87.498047" viewBox="0 0 85.0197 87.498" fill="none" xmlns="http://www.w3.org/2000/svg" xmlns:xlink="http://www.w3.org/1999/xlink">
	<desc>
			Created with Pixso.
	</desc>
	<defs/>
	<path id="Vector" d="M72.3237 72.8401C71.5017 73.65 70.6288 74.4231 69.7347 75.1621C68.1608 76.457 66.4847 77.6471 64.7428 78.692C45.4797 90.259 20.3988 84.0011 8.83374 64.743C3.22974 55.4121 1.59473 44.458 4.23071 33.8971C6.8667 23.338 13.4568 14.437 22.7877 8.83411C32.1188 3.229 43.0737 1.59412 53.6317 4.229C62.6812 6.48682 70.5056 11.6547 76.0858 18.9589C76.8396 19.9454 75.8727 21.223 74.6908 20.843C73.9008 20.5901 73.0568 21.025 72.8037 21.812C72.5498 22.6011 72.9838 23.4451 73.7727 23.6991L80.7397 25.9381C80.8917 25.9871 81.0477 26.01 81.1987 26.01C81.8308 26.01 82.4177 25.609 82.6248 24.9771L84.9447 17.896C85.2028 17.108 84.7727 16.2611 83.9857 16.0031C83.1958 15.744 82.3507 16.1741 82.0928 16.9611C81.6156 18.4177 79.625 18.6718 78.7053 17.4456C72.6991 9.43726 64.2035 3.77332 54.3588 1.31702C43.0208 -1.50891 31.2607 0.246094 21.2428 6.26208C11.2257 12.2781 4.14978 21.8351 1.3197 33.171C-1.51025 44.509 0.244751 56.27 6.26074 66.2881C14.4558 79.9331 28.9668 87.498 43.8328 87.498C51.4948 87.498 59.2528 85.4871 66.2867 81.264C67.0477 80.807 67.7937 80.3181 68.5298 79.8131C68.5627 79.7941 68.5988 79.786 68.6298 79.765C69.5238 79.151 70.3838 78.51 71.1827 77.864C71.3258 77.749 71.4637 77.624 71.6057 77.5071C71.7037 77.427 71.8048 77.3501 71.9017 77.269C71.9277 77.2471 71.9468 77.2211 71.9718 77.198C72.8158 76.4871 73.6448 75.75 74.4298 74.9771C75.0198 74.396 75.0277 73.446 74.4458 72.8561C73.8647 72.2661 72.9127 72.2581 72.3237 72.8401Z" fill="#00A3FF" fill-opacity="1.000000" fill-rule="nonzero"/>
</svg>
