<svg width="28.499954" height="29.000000" viewBox="0 0 28.5 29" fill="none" xmlns="http://www.w3.org/2000/svg" xmlns:xlink="http://www.w3.org/1999/xlink">
	<desc>
			Created with Pixso.
	</desc>
	<defs/>
	<path id="Vector" d="M27.25 29C26.875 29 26.625 28.875 26.375 28.625L19.375 21.625C18.875 21.125 18.875 20.375 19.375 19.875C19.875 19.375 20.625 19.375 21.125 19.875L28.125 26.875C28.625 27.375 28.625 28.125 28.125 28.625C28 28.875 27.625 29 27.25 29Z" fill="#FFFFFF" fill-opacity="1.000000" fill-rule="nonzero"/>
	<path id="Vector" d="M12.4999 24.875C5.62497 24.875 0 19.25 0 12.375C0 5.625 5.62497 0 12.4999 0C19.3749 0 24.9998 5.625 24.9998 12.5C24.8748 19.375 19.3749 24.875 12.4999 24.875ZM12.4999 2.5C6.99997 2.5 2.5 7 2.5 12.5C2.5 18 6.99997 22.5 12.4999 22.5C17.9999 22.5 22.4999 18 22.4999 12.5C22.3749 7 17.9999 2.5 12.4999 2.5Z" fill="#FFFFFF" fill-opacity="1.000000" fill-rule="nonzero"/>
</svg>
