<svg width="86.856079" height="88.000000" viewBox="0 0 86.8561 88" fill="none" xmlns="http://www.w3.org/2000/svg" xmlns:xlink="http://www.w3.org/1999/xlink">
	<desc>
			Created with Pixso.
	</desc>
	<defs/>
	<path id="Vector" d="M43.7845 10.4883C25.2805 10.4883 10.2266 25.5472 10.2266 44.0573C10.2266 62.5663 25.2805 77.6233 43.7845 77.6233C62.2936 77.6233 77.3516 62.5653 77.3516 44.0573C77.3516 43.2283 76.6796 42.5573 75.8516 42.5573L55.2845 42.5573C49.7617 42.5573 45.2845 38.0801 45.2845 32.5573L45.2845 11.9883C45.2845 11.1593 44.6135 10.4883 43.7845 10.4883ZM72.0275 55.749C67.4274 66.819 56.5004 74.6233 43.7845 74.6233C26.9346 74.6233 13.2266 60.9113 13.2266 44.0573C13.2266 31.3417 21.0273 20.4144 32.093 15.8135C37.3687 13.62 42.2845 18.3086 42.2845 24.022L42.2845 44.0573C42.2845 44.8853 42.9556 45.5573 43.7845 45.5573L63.818 45.5573C69.5314 45.5573 74.22 50.473 72.0275 55.749Z" fill="#00A3FF" fill-opacity="1.000000" fill-rule="nonzero"/>
	<path id="Vector" d="M72.307 73.2579C71.4852 74.0725 70.6124 74.85 69.7186 75.5933C68.145 76.8956 66.4694 78.0925 64.7278 79.1434C45.4692 90.7769 20.394 84.4829 8.83167 65.1145C3.229 55.73 1.59436 44.7131 4.22974 34.0916C6.86511 23.4719 13.4536 14.5199 22.7825 8.88477C32.1113 3.24756 43.0638 1.60315 53.6194 4.2533C62.6708 6.52502 70.4965 11.7263 76.0759 19.0778C76.8275 20.068 75.8563 21.3451 74.6735 20.9626C73.8837 20.7081 73.0398 21.1456 72.7869 21.9371C72.533 22.7307 72.9669 23.5796 73.7557 23.835L80.7211 26.0868C80.873 26.1361 81.0291 26.1593 81.1799 26.1593C81.8119 26.1593 82.3987 25.756 82.6056 25.1204L84.925 17.9988C85.1831 17.2062 84.7532 16.3544 83.9663 16.0948C83.1765 15.8344 82.3317 16.2668 82.0737 17.0583C81.5984 18.5186 79.6021 18.7725 78.6841 17.5415C72.6794 9.48938 64.187 3.79456 54.3462 1.32458C43.0107 -1.51758 31.2535 0.247437 21.2378 6.29797C11.2231 12.3485 4.1488 21.9603 1.31946 33.3613C-1.50989 44.7644 0.244751 56.5929 6.25928 66.6683C14.4524 80.3916 28.9601 88 43.8226 88C51.4828 88 59.239 85.9774 66.2715 81.7302C67.0322 81.2706 67.7781 80.7788 68.5139 80.2709C68.5469 80.2518 68.5829 80.2438 68.6139 80.2227C69.5077 79.6051 70.3674 78.9604 71.1663 78.3108C71.3092 78.1951 71.4473 78.0693 71.5892 77.9517C71.6871 77.8712 71.7881 77.7938 71.8851 77.7123C71.9111 77.6902 71.9302 77.6641 71.9551 77.6409C72.799 76.9258 73.6277 76.1846 74.4126 75.4072C75.0024 74.8229 75.0104 73.8674 74.4286 73.274C73.8477 72.6807 72.8959 72.6726 72.307 73.2579Z" fill="#00A3FF" fill-opacity="1.000000" fill-rule="nonzero"/>
	<path id="Vector" d="M82.1511 61.4659C81.4102 61.0929 80.5082 61.3889 80.1351 62.1279C79.0571 64.2629 77.7981 66.299 76.3951 68.1799C75.9001 68.844 76.0371 69.7839 76.7001 70.2799C76.9701 70.481 77.2842 70.5779 77.5962 70.5779C78.0531 70.5779 78.5051 70.37 78.7991 69.975C80.3062 67.954 81.6561 65.7699 82.8131 63.4819C83.1862 62.741 82.8901 61.839 82.1511 61.4659Z" fill="#00A3FF" fill-opacity="1.000000" fill-rule="nonzero"/>
	<path id="Vector" d="M85.6219 49.7273C84.812 49.5873 84.027 50.1223 83.879 50.9373C83.48 53.1533 82.895 55.3503 82.142 57.4653C81.864 58.2454 82.272 59.1044 83.052 59.3813C83.218 59.4413 83.3879 59.4683 83.5551 59.4683C84.171 59.4683 84.749 59.0853 84.968 58.4713C85.776 56.2013 86.403 53.8463 86.832 51.4703C86.979 50.6553 86.438 49.8743 85.6219 49.7273Z" fill="#00A3FF" fill-opacity="1.000000" fill-rule="nonzero"/>
</svg>
